<?xml version="1.0" encoding="utf-8"?>
<!-- Generator: Adobe Illustrator 23.1.0, SVG Export Plug-In . SVG Version: 6.00 Build 0)  -->
<svg version="1.1" id="pizza" xmlns="http://www.w3.org/2000/svg" xmlns:xlink="http://www.w3.org/1999/xlink" x="0px" y="0px"
	 viewBox="0 0 512 512" style="enable-background:new 0 0 512 512;" xml:space="preserve">
<style type="text/css">
	.st0{fill:#F9D11F;}
	.st1{fill:#FFA402;}
	.st2{fill:#FDEDA5;}
	.st3{fill:#FBDF63;}
	.st4{fill:#ED2061;}
	.st5{fill:#68C044;}
	.st6{fill:#F79E60;}
	.st7{fill:#D77D41;}
	.st8{fill:#C71E54;}
</style>
<path class="st0" d="M21.3,234c0,0,74.1-3.6,118.1,66l23.8-61.1C163.3,238.9,100.5,205.4,21.3,234z"/>
<path class="st0" d="M21.3,191.1c0,0,103.4-41,147.5,28.6l23.8-61.1C192.6,158.6,112.3,135.1,21.3,191.1z"/>
<path class="st0" d="M21.3,123.5c0,0,153.6-42.9,171.1,28.8l23.8-61.1C216.3,91.2,127,59.7,21.3,123.5z"/>
<g>
	<path class="st0" d="M259.2,469.3c0,0,10-73.5-55.5-123.4l62.9-18.4C266.6,327.5,294.6,392.9,259.2,469.3z"/>
	<path class="st0" d="M302,473c0,0,49.8-99.5-15.7-149.4l62.9-18.4C349.2,305.2,365.6,387.2,302,473z"/>
	<path class="st0" d="M369.4,478.9c0,0,56-149.3-13.9-173l62.9-18.4C418.4,287.5,442.1,379.2,369.4,478.9z"/>
</g>
<g>
	<path class="st0" d="M449.5,285.7l-30.1,10.2L120.3,397.1c-13,4.4-25.4-8-21-21l0.8-2.4L200.5,77.1l10.2-30.1l38.5-5.5l125,81
		L455,247.2l-2.1,14.9L449.5,285.7z"/>
	<path class="st1" d="M449.5,285.7l-30.1,10.2L120.3,397.1c-13,4.4-25.4-8-21-21l0.8-2.4c7.1,3.1,15.3,3.5,22.9,0.9l329.9-112.5
		L449.5,285.7z"/>
	<path class="st2" d="M449.5,285.7l-30.1,10.2c-1.5-6.5-3.4-13.3-5.8-20.4c-11.4-34.5-33.4-75.7-75.2-117.5
		c-50.4-50.4-100-72.1-137.9-81l10.2-30.1l38.5-5.5l125,81L455,247.2l-2.1,14.9L449.5,285.7z"/>
	<path class="st3" d="M449.5,285.7l-30.1,10.2c-1.5-6.5-3.4-13.3-5.8-20.4l39.3-13.4L449.5,285.7z"/>
	<g>
		<ellipse class="st4" cx="240.5" cy="160.2" rx="30.9" ry="30.9"/>
		<ellipse class="st4" cx="220.7" cy="275.6" rx="30.9" ry="30.9"/>
		<path class="st4" d="M367.4,313.5l-52.4,17.6c-5.3-5.3-8.3-12-8.9-18.9c-0.8-8.8,2.1-18,8.9-24.8c12.1-12.1,31.6-12.1,43.7,0
			c1.7,1.7,3.1,3.5,4.3,5.4C366.9,299.1,368.4,306.4,367.4,313.5L367.4,313.5z"/>
	</g>
	<g>
		<path class="st5" d="M168.8,345.1c-8,8-23.3,5.8-23.3,5.8s-2.2-15.2,5.8-23.3c8-8,23.3-5.8,23.3-5.8S176.9,337.1,168.8,345.1z"/>
		<path class="st5" d="M308.9,231.7c6,9.6,0.4,24,0.4,24s-15.3-1.3-21.3-11c-6-9.6-0.4-24-0.4-24S303,222.1,308.9,231.7L308.9,231.7
			z"/>
	</g>
	<path class="st6" d="M471.6,299.1c-0.2,0.1-0.5,0.1-0.7,0.2c-6,1.3-11.9-0.7-15.9-4.7c-2.3-2.3-4-5.3-4.7-8.7
		c-7.5-35.9-29.1-91.2-88.8-151c-59.7-59.7-115.1-81.2-151-88.8c-9.4-2-15.5-11.2-13.5-20.6c0-0.2,0.1-0.5,0.2-0.7
		c2.3-9,11.3-14.7,20.5-12.8c40.5,8.5,102.7,32.4,168.5,98.2c65.8,65.8,89.7,127.9,98.3,168.5C486.4,287.8,480.7,296.8,471.6,299.1
		L471.6,299.1z"/>
	<path class="st7" d="M471.6,299.1c0.6-2.5,0.7-5.2,0.1-7.8c-8.5-40.5-32.4-102.6-98.3-168.5C307.7,57,245.6,33.1,205.1,24.6
		c-2.7-0.6-5.3-0.5-7.8,0.2c2.3-9,11.3-14.7,20.5-12.8c40.5,8.5,102.7,32.4,168.5,98.2c65.8,65.8,89.7,127.9,98.3,168.5
		C486.4,287.8,480.7,296.8,471.6,299.1L471.6,299.1z"/>
	<path class="st8" d="M367.4,313.5l-52.4,17.6c-5.3-5.3-8.3-12-8.9-18.9l56.9-19.4C366.9,299.1,368.4,306.4,367.4,313.5z"/>
</g>
<g>
	<path d="M490.1,277.4c-8.7-41.3-33-104.6-99.8-171.4C323.5,39.2,260.2,14.9,218.9,6.2c-12.6-2.6-24.9,5.4-27.5,18
		c-1.3,6.1-0.1,12.3,3.3,17.5c2.3,3.5,5.3,6.2,8.9,8L134.8,253c-1,3.1,0.6,6.4,3.7,7.4c0.6,0.2,1.3,0.3,1.9,0.3c2.4,0,4.7-1.5,5.5-4
		L204.3,84c46.4,12,90.1,38.2,130,78.1c15.1,15.1,28.4,31,39.7,47.3c1.1,1.6,3,2.5,4.8,2.5c1.1,0,2.3-0.3,3.3-1
		c2.7-1.8,3.3-5.5,1.5-8.1C372,186,358.2,169.5,342.6,154c0,0,0,0,0,0c0,0,0,0,0,0l-0.1-0.1c0,0,0,0,0,0c0,0,0,0,0,0
		c-41.2-41.1-86.3-68.3-134.4-80.8l6.7-19.9c8.8,2.1,17.8,4.8,26.8,8.2c3,1.1,6.4-0.4,7.5-3.4c1.1-3-0.4-6.4-3.4-7.5
		c-11.4-4.2-22.8-7.6-33.9-9.9c-3-0.6-5.6-2.4-7.3-5c-1.7-2.6-2.3-5.7-1.6-8.7c1.3-6.3,7.5-10.3,13.7-9
		c39.8,8.3,100.8,31.9,165.6,96.6c64.8,64.8,88.3,125.8,96.7,165.5c0.6,3,0.1,6.1-1.6,8.7c-1.7,2.6-4.3,4.4-7.3,5
		c-3.9,0.8-7.8-0.4-10.6-3.2c-1.6-1.6-2.7-3.6-3.1-5.8c-7.7-36.7-29.6-93.1-90.4-153.9c-29.7-29.7-61.2-52.9-93.7-69
		c-2.9-1.4-6.4-0.3-7.8,2.6c-1.4,2.9-0.3,6.4,2.6,7.8c31.3,15.6,61.9,38,90.7,66.8c55.8,55.8,77.7,107.6,86,142.7l-19.9,6.7
		c-5.5-21-13.9-41.7-25.1-61.7c-1.6-2.8-5.1-3.8-7.9-2.2c-2.8,1.6-3.8,5.1-2.2,7.9c10.9,19.4,19,39.5,24.2,59.8l-39.2,13.2
		c-0.9-8.3-4.5-16-10.6-22c-14.3-14.3-37.6-14.3-51.9,0c-6.9,6.9-10.8,16.2-10.8,26c0,6.8,1.9,13.4,5.3,19.1l-186.9,63.2
		c-4,1.3-8.1,0.4-11.1-2.6c-3-3-3.9-7.1-2.6-11.1l32.4-95.7c1-3.1-0.6-6.4-3.7-7.4c-3.1-1-6.4,0.6-7.4,3.7l-32.4,95.7
		c-2.8,8.1-0.7,17,5.4,23c4.3,4.3,10,6.6,15.8,6.6c2.4,0,4.9-0.4,7.2-1.2l324.5-109.8c1.1,2.1,2.5,4.1,4.2,5.8
		c4.4,4.4,10.3,6.8,16.4,6.8c1.6,0,3.2-0.2,4.8-0.5c6.1-1.3,11.3-4.8,14.7-10C490.3,289.7,491.4,283.5,490.1,277.4L490.1,277.4z
		 M316.8,324.5c-3.3-4.3-5.1-9.6-5.1-15.2c0-6.7,2.6-13,7.3-17.7c9.8-9.8,25.7-9.8,35.4,0c4.8,4.8,7.3,11.1,7.3,17.7L316.8,324.5z"
		/>
	<path d="M214.5,134.2c-6.9,6.9-10.8,16.2-10.8,26s3.8,19,10.8,26c7.2,7.2,16.6,10.7,26,10.7c9.4,0,18.8-3.6,26-10.7
		c6.9-6.9,10.8-16.2,10.8-26c0-9.8-3.8-19-10.8-26C252.1,119.9,228.8,119.9,214.5,134.2L214.5,134.2z M258.2,177.9
		c-9.8,9.8-25.7,9.8-35.4,0c-4.7-4.7-7.3-11-7.3-17.7s2.6-13,7.3-17.7c4.9-4.9,11.3-7.3,17.7-7.3c6.4,0,12.8,2.4,17.7,7.3
		c4.7,4.7,7.3,11,7.3,17.7S262.9,173.2,258.2,177.9L258.2,177.9z"/>
	<path d="M194.7,301.6c7.2,7.2,16.6,10.7,26,10.7s18.8-3.6,26-10.7c2.3-2.3,2.3-6,0-8.2c-2.3-2.3-6-2.3-8.2,0
		c-9.8,9.8-25.7,9.8-35.4,0c-4.7-4.7-7.3-11-7.3-17.7c0-6.7,2.6-13,7.3-17.7c9.8-9.8,25.7-9.8,35.4,0c4,4,6.5,9,7.2,14.6
		c0.4,3.2,3.3,5.5,6.5,5.1c3.2-0.4,5.5-3.3,5.1-6.5c-1-8.2-4.6-15.6-10.5-21.5c-14.3-14.3-37.6-14.3-51.9,0
		c-6.9,6.9-10.8,16.2-10.8,26C184,285.4,187.8,294.7,194.7,301.6z"/>
	<path d="M144.7,356.7c0.3,0,2.5,0.3,5.6,0.3c1.3,0,2.8-0.1,4.4-0.2c7.7-0.7,14-3.3,18.2-7.6s6.9-10.6,7.6-18.2
		c0.5-5.3-0.1-9.5-0.1-10c-0.4-2.6-2.4-4.6-4.9-4.9c-0.5-0.1-4.7-0.6-10-0.1c-7.7,0.7-14,3.3-18.2,7.6s-6.9,10.6-7.6,18.2
		c-0.5,5.3,0.1,9.5,0.1,10C140.2,354.3,142.2,356.3,144.7,356.7z M155.5,331.8c3.3-3.3,9.2-4.3,13.6-4.4c-0.1,4.4-1,10.2-4.4,13.6
		c-3.3,3.3-9.2,4.3-13.6,4.4C151.2,340.9,152.2,335.1,155.5,331.8z"/>
	<path d="M288.1,215c-2.6-0.2-5,1.3-5.9,3.7c-0.2,0.4-1.7,4.4-2.4,9.7c-1,7.6,0.1,14.4,3.2,19.5c3.2,5.1,8.7,9.1,16,11.6
		c5.1,1.7,9.3,2.1,9.8,2.1c0.2,0,0.3,0,0.5,0c2.4,0,4.5-1.5,5.4-3.7c0.2-0.4,1.7-4.4,2.4-9.7c1.1-7.6-0.1-14.4-3.2-19.5
		c-3.2-5.1-8.7-9.1-16-11.6C292.8,215.4,288.6,215,288.1,215L288.1,215z M304,234.8c2.5,4,2.1,9.9,1.2,14.2
		c-4.3-1.1-9.7-3.4-12.2-7.4c-2.5-4-2.1-9.9-1.2-14.2C296,228.5,301.5,230.8,304,234.8z"/>
	<path d="M191.5,201c-2.7,1.7-3.5,5.3-1.8,8.1l8.9,13.9c1.1,1.7,3,2.7,4.9,2.7c1.1,0,2.2-0.3,3.1-0.9c2.7-1.7,3.5-5.3,1.8-8.1
		l-8.9-13.9C197.9,200.1,194.2,199.3,191.5,201L191.5,201z"/>
	<path d="M312.8,199.4l12.5,10.7c1.1,0.9,2.4,1.4,3.8,1.4c1.6,0,3.3-0.7,4.4-2c2.1-2.4,1.8-6.1-0.6-8.2l-12.5-10.7
		c-2.4-2.1-6.1-1.8-8.2,0.6C310.1,193.6,310.4,197.3,312.8,199.4z"/>
	<path d="M271.1,296.7l-1.6,15c-0.3,3.2,2,6.1,5.2,6.4c0.2,0,0.4,0,0.6,0c2.9,0,5.5-2.2,5.8-5.2l1.6-15c0.3-3.2-2-6.1-5.2-6.4
		C274.4,291.2,271.5,293.5,271.1,296.7L271.1,296.7z"/>
</g>
<g>
	<text transform="matrix(1 0 0 1 306.7979 750)" style="font-family:'MyriadPro-Regular'; font-size:12px;">displacementFilter</text>
</g>
</svg>
