<?xml version="1.0" encoding="utf-8"?>
<!-- Generator: Adobe Illustrator 23.1.0, SVG Export Plug-In . SVG Version: 6.00 Build 0)  -->
<svg version="1.1" id="pizza" xmlns="http://www.w3.org/2000/svg" xmlns:xlink="http://www.w3.org/1999/xlink" x="0px" y="0px"
	 viewBox="0 0 512 512" style="enable-background:new 0 0 512 512;" xml:space="preserve">
<style type="text/css">
	.st0{fill:#F9D11F;}
	.st1{fill:#FFA402;}
	.st2{fill:#FDEDA5;}
	.st3{fill:#FBDF63;}
	.st4{fill:#ED2061;}
	.st5{fill:#68C044;}
	.st6{fill:#F79E60;}
	.st7{fill:#D77D41;}
	.st8{fill:#C71E54;}
</style>
<g>
	<g>
		<path class="st0" d="M459.1,360.1l-38.7,13.1L35.7,503.3C19,509,3,493,8.7,476.3l1-3L138.8,91.7L151.9,53l49.5-7.1l160.7,104.1
			l104,160.6l-2.7,19.1L459.1,360.1z"/>
		<path class="st1" d="M459.1,360.1l-38.7,13.1L35.7,503.3C19,509,3,493,8.7,476.3l1-3c9.2,4,19.7,4.5,29.4,1.2l424.3-144.7
			L459.1,360.1z"/>
		<path class="st2" d="M459.1,360.1l-38.7,13.1c-2-8.3-4.4-17.1-7.4-26.2c-14.6-44.3-43-97.3-96.7-151.1
			C251.3,131,187.6,103.2,138.8,91.7L151.9,53l49.5-7.1l160.7,104.1l104,160.6l-2.7,19.1L459.1,360.1z"/>
		<path class="st3" d="M459.1,360.1l-38.7,13.1c-2-8.3-4.4-17.1-7.4-26.2l50.5-17.2L459.1,360.1z"/>
		<g>
			<ellipse class="st4" cx="190.2" cy="198.7" rx="39.7" ry="39.7"/>
			<ellipse class="st4" cx="164.8" cy="347.1" rx="39.7" ry="39.7"/>
			<path class="st4" d="M353.5,395.9L286,418.5c-6.8-6.8-10.6-15.5-11.5-24.3c-1.1-11.4,2.8-23.1,11.5-31.8
				c15.5-15.5,40.7-15.5,56.2,0c2.1,2.1,4,4.4,5.5,6.9C352.8,377.3,354.7,386.7,353.5,395.9L353.5,395.9z"/>
		</g>
		<g>
			<path class="st5" d="M98.1,436.5c-10.3,10.3-29.9,7.5-29.9,7.5s-2.8-19.6,7.5-29.9s29.9-7.5,29.9-7.5S108.4,426.1,98.1,436.5z"/>
			<path class="st5" d="M278.3,290.7c7.7,12.4,0.5,30.8,0.5,30.8s-19.7-1.7-27.4-14.1s-0.5-30.8-0.5-30.8S270.6,278.3,278.3,290.7
				L278.3,290.7z"/>
		</g>
		<path class="st6" d="M487.6,377.3c-0.3,0.1-0.6,0.1-0.9,0.2c-7.7,1.6-15.3-0.9-20.5-6.1c-3-3-5.2-6.8-6.1-11.2
			C450.4,314,422.8,242.9,345.9,166c-76.8-76.8-148-104.5-194.2-114.1c-12.1-2.5-19.9-14.4-17.3-26.5c0.1-0.3,0.1-0.6,0.2-0.9
			c2.9-11.6,14.5-19,26.3-16.5C213.1,18.9,293,49.7,377.6,134.3C462.3,219,493.1,298.8,504,351C506.5,362.8,499.2,374.4,487.6,377.3
			L487.6,377.3z"/>
		<path class="st7" d="M487.6,377.3c0.8-3.2,0.9-6.6,0.2-10.1c-10.9-52.1-41.7-132-126.4-216.6C276.7,66,196.8,35.2,144.7,24.3
			c-3.5-0.7-6.9-0.6-10.1,0.2c2.9-11.6,14.5-19,26.3-16.5C213.1,18.9,293,49.7,377.6,134.3C462.3,219,493.1,298.8,504,351
			C506.5,362.8,499.2,374.4,487.6,377.3L487.6,377.3z"/>
		<path class="st8" d="M353.5,395.9L286,418.5c-6.8-6.8-10.6-15.5-11.5-24.3l73.2-24.9C352.8,377.3,354.7,386.7,353.5,395.9z"/>
	</g>
	<g>
		<path d="M511.4,349.4c-11.1-53.1-42.5-134.5-128.4-220.4C297,43.1,215.6,11.8,162.5,0.6c-16.1-3.4-32,7-35.4,23.1
			c-1.6,7.8-0.1,15.8,4.2,22.5c2.9,4.5,6.9,8,11.5,10.3L54.3,318.1c-1.3,3.9,0.8,8.2,4.7,9.5c0.8,0.3,1.6,0.4,2.4,0.4
			c3.1,0,6-2,7.1-5.1l75.2-222.2c59.6,15.4,115.9,49.2,167.2,100.5c19.4,19.4,36.6,39.9,51,60.9c1.5,2.1,3.8,3.3,6.2,3.3
			c1.5,0,2.9-0.4,4.2-1.3c3.4-2.3,4.3-7,1.9-10.4c-14.9-21.7-32.6-42.8-52.7-62.9c0,0,0,0,0,0c0,0,0,0,0,0l-0.1-0.1c0,0,0,0-0.1-0.1
			c0,0,0,0,0,0c-52.9-52.9-111.1-87.8-172.9-104l8.7-25.6c11.4,2.7,23,6.2,34.5,10.5c3.9,1.4,8.2-0.5,9.6-4.4
			c1.4-3.9-0.5-8.2-4.4-9.6c-14.6-5.4-29.3-9.7-43.6-12.7c-3.9-0.8-7.3-3.1-9.4-6.4c-2.2-3.3-2.9-7.3-2.1-11.2
			c1.7-8.1,9.6-13.2,17.7-11.5C210.5,26,289,56.3,372.3,139.6c83.3,83.3,113.6,161.8,124.3,212.9c0.8,3.9,0.1,7.9-2.1,11.2
			c-2.2,3.3-5.5,5.6-9.4,6.4c-5,1-10-0.5-13.6-4.1c-2-2-3.4-4.6-4-7.5c-9.9-47.2-38.1-119.8-116.2-197.9
			c-38.2-38.2-78.8-68.1-120.5-88.8c-3.7-1.8-8.2-0.3-10.1,3.4s-0.3,8.2,3.4,10.1c40.3,20,79.5,48.9,116.6,86
			c71.8,71.8,99.9,138.4,110.6,183.5l-25.6,8.7c-7.1-26.9-17.9-53.6-32.3-79.4c-2-3.6-6.6-4.9-10.2-2.9c-3.6,2-4.9,6.6-2.9,10.2
			c14,25,24.4,50.8,31.2,76.9l-50.4,17c-1.1-10.6-5.8-20.6-13.6-28.3c-18.4-18.4-48.4-18.4-66.8,0c-8.9,8.9-13.8,20.8-13.8,33.4
			c0,8.8,2.4,17.2,6.8,24.5L33.3,496.2c-5.1,1.7-10.4,0.5-14.2-3.3c-3.8-3.8-5-9.1-3.3-14.2l41.7-123.1c1.3-3.9-0.8-8.2-4.7-9.5
			c-3.9-1.3-8.2,0.8-9.5,4.7L1.5,473.9c-3.5,10.5-0.9,21.8,6.9,29.6c5.5,5.5,12.8,8.5,20.3,8.5c3.1,0,6.3-0.5,9.3-1.5l417.4-141.2
			c1.4,2.7,3.2,5.2,5.4,7.4c5.7,5.7,13.3,8.8,21.1,8.8c2.1,0,4.1-0.2,6.2-0.6c7.8-1.6,14.5-6.2,18.9-12.9
			C511.5,365.2,513,357.2,511.4,349.4L511.4,349.4z M288.5,409.9c-4.3-5.6-6.6-12.4-6.6-19.5c0-8.6,3.4-16.7,9.4-22.8
			c12.6-12.6,33-12.6,45.6,0c6.1,6.1,9.4,14.2,9.4,22.7L288.5,409.9z"/>
		<path d="M156.8,165.3c-8.9,8.9-13.8,20.8-13.8,33.4s4.9,24.5,13.8,33.4c9.2,9.2,21.3,13.8,33.4,13.8s24.2-4.6,33.4-13.8
			c8.9-8.9,13.8-20.8,13.8-33.4s-4.9-24.5-13.8-33.4C205.2,146.8,175.2,146.8,156.8,165.3L156.8,165.3z M213,221.4
			c-12.6,12.6-33,12.6-45.6,0c-6.1-6.1-9.4-14.2-9.4-22.8s3.4-16.7,9.4-22.8c6.3-6.3,14.5-9.4,22.8-9.4c8.3,0,16.5,3.1,22.8,9.4
			c6.1,6.1,9.4,14.2,9.4,22.8S219.1,215.4,213,221.4L213,221.4z"/>
		<path d="M131.4,380.5c9.2,9.2,21.3,13.8,33.4,13.8s24.2-4.6,33.4-13.8c2.9-2.9,2.9-7.7,0-10.6c-2.9-2.9-7.7-2.9-10.6,0
			c-12.6,12.6-33,12.6-45.6,0c-6.1-6.1-9.4-14.2-9.4-22.8c0-8.6,3.4-16.7,9.4-22.8c12.6-12.6,33-12.6,45.6,0
			c5.1,5.1,8.3,11.6,9.2,18.8c0.5,4.1,4.2,7,8.4,6.5c4.1-0.5,7-4.3,6.5-8.4c-1.3-10.5-6-20.1-13.5-27.6c-18.4-18.4-48.4-18.4-66.8,0
			c-8.9,8.9-13.8,20.8-13.8,33.4C117.5,359.7,122.5,371.6,131.4,380.5z"/>
		<path d="M67.1,451.4c0.4,0.1,3.2,0.4,7.2,0.4c1.7,0,3.6-0.1,5.7-0.3c9.9-0.9,18-4.3,23.4-9.8s8.9-13.6,9.8-23.4
			c0.6-6.9-0.1-12.3-0.2-12.9c-0.5-3.3-3.1-5.9-6.3-6.3c-0.6-0.1-6-0.8-12.9-0.2c-9.9,0.9-18,4.3-23.4,9.8s-8.9,13.6-9.8,23.4
			c-0.6,6.9,0.1,12.3,0.2,12.9C61.2,448.3,63.8,450.9,67.1,451.4z M81,419.4c4.3-4.3,11.8-5.5,17.5-5.6c-0.1,5.7-1.3,13.2-5.6,17.5
			c-4.3,4.3-11.8,5.5-17.5,5.6C75.5,431.1,76.7,423.6,81,419.4z"/>
		<path d="M251.5,269.1c-3.3-0.3-6.4,1.6-7.6,4.7c-0.2,0.6-2.2,5.6-3.1,12.5c-1.4,9.8,0.1,18.5,4.2,25c4.1,6.6,11.2,11.7,20.6,14.9
			c6.6,2.2,12,2.7,12.6,2.8c0.2,0,0.4,0,0.6,0c3.1,0,5.8-1.9,7-4.8c0.2-0.6,2.2-5.6,3.1-12.5c1.4-9.8-0.1-18.5-4.2-25
			c-4.1-6.6-11.2-11.7-20.6-14.9C257.5,269.7,252.1,269.2,251.5,269.1L251.5,269.1z M271.9,294.6c3.2,5.2,2.7,12.7,1.5,18.3
			c-5.5-1.4-12.5-4.3-15.7-9.5c-3.2-5.2-2.7-12.7-1.5-18.3C261.7,286.6,268.7,289.5,271.9,294.6z"/>
		<path d="M127.3,251.2c-3.5,2.2-4.5,6.9-2.3,10.4l11.4,17.8c1.4,2.2,3.9,3.5,6.3,3.5c1.4,0,2.8-0.4,4-1.2c3.5-2.2,4.5-6.9,2.3-10.4
			l-11.4-17.8C135.4,250,130.8,248.9,127.3,251.2L127.3,251.2z"/>
		<path d="M283.3,249l16.1,13.8c1.4,1.2,3.1,1.8,4.9,1.8c2.1,0,4.2-0.9,5.7-2.6c2.7-3.1,2.3-7.9-0.8-10.6L293,237.6
			c-3.1-2.7-7.9-2.3-10.6,0.8C279.8,241.6,280.1,246.3,283.3,249z"/>
		<path d="M229.7,374.3l-2,19.3c-0.4,4.1,2.6,7.8,6.7,8.2c0.3,0,0.5,0,0.8,0c3.8,0,7-2.9,7.4-6.7l2-19.3c0.4-4.1-2.6-7.8-6.7-8.2
			C233.8,367.2,230.1,370.2,229.7,374.3L229.7,374.3z"/>
	</g>
	<path class="st0" d="M67.5,356.2c-2.2,1.5-24.7-18.3-38.8-23.6c-14-5.3-4.3-13.5-14-21.1c-9.8-7.6,3.6-12.8,14-7.7
		c10.4,5,12.6-3.5,20.2,4c7.6,7.5,30.8,11,30.8,11L67.5,356.2z"/>
	<path class="st0" d="M102.1,231.8c-2.7,1.9-30.1-22.2-47.2-28.7s-5.2-16.4-17.1-25.7s4.4-15.6,17.1-9.4c12.7,6.1,15.4-4.3,24.6,4.9
		c9.3,9.2,37.5,13.4,37.5,13.4L102.1,231.8z"/>
	<path class="st0" d="M132.7,147.9c-2.7,1.9-30.1-22.2-47.2-28.7c-17.1-6.5-5.2-16.4-17.1-25.7s4.4-15.6,17.1-9.4
		c12.7,6.1,15.4-4.3,24.6,4.9s37.5,13.4,37.5,13.4L132.7,147.9z"/>
</g>
<g>
	<text transform="matrix(1 0 0 1 306.7979 750)" style="font-family:'MyriadPro-Regular'; font-size:12px;">displacementFilter</text>
</g>
</svg>
